<svg viewBox="0 0 24 24" fill="none" xmlns="http://www.w3.org/2000/svg">
<path d="M21 16V8C20.9996 7.64928 20.9071 7.30481 20.7315 7.00116C20.556 6.69752 20.3037 6.44536 20 6.27L13 2.27C12.696 2.09446 12.3511 2.00205 12 2.00205C11.6489 2.00205 11.304 2.09446 11 2.27L4 6.27C3.69626 6.44536 3.44398 6.69752 3.26846 7.00116C3.09294 7.30481 3.00036 7.64928 3 8V16C3.00036 16.3507 3.09294 16.6952 3.26846 16.9988C3.44398 17.3025 3.69626 17.5546 4 17.73L11 21.73C11.304 21.9055 11.6489 21.998 12 21.998C12.3511 21.998 12.696 21.9055 13 21.73L20 17.73C20.3037 17.5546 20.556 17.3025 20.7315 16.9988C20.9071 16.6952 20.9996 16.3507 21 16Z" fill="#EF5274"/>
<path fill-rule="evenodd" clip-rule="evenodd" d="M10.5021 1.40274C10.9577 1.14024 11.4742 1.00205 12 1.00205C12.5258 1.00205 13.0424 1.14025 13.4979 1.40277L13.5 1.40398L20.4961 5.40176L20.5 5.40397C20.87 5.61757 21.189 5.90711 21.4369 6.25228C21.4973 6.31267 21.5508 6.38184 21.5956 6.45928C21.6342 6.52598 21.6642 6.59528 21.686 6.66592C21.8917 7.07936 21.9995 7.53552 22 7.99898V8V16V16.001C21.9995 16.5271 21.8606 17.0438 21.5973 17.4993C21.334 17.9548 20.9556 18.333 20.5 18.596L20.4961 18.5982L13.5 22.596L13.4982 22.5971C13.181 22.7799 12.8342 22.9025 12.4753 22.9601C12.3339 23.0366 12.172 23.08 12 23.08C11.828 23.08 11.6661 23.0366 11.5248 22.9601C11.1659 22.9025 10.8191 22.7799 10.5019 22.5971L10.5 22.596L3.50386 18.5982L3.5 18.596C3.04439 18.333 2.66597 17.9548 2.40269 17.4993C2.13941 17.0438 2.00054 16.5271 2 16.001V16V8V7.99898C2.00048 7.53545 2.10834 7.07921 2.31407 6.66572C2.33586 6.59515 2.36586 6.52592 2.40441 6.45928C2.44917 6.3819 2.50271 6.31277 2.56304 6.25242C2.8109 5.90719 3.13 5.6176 3.5 5.40398L3.50386 5.40175L3.50386 5.40176L10.5021 1.40274ZM13 20.5783L19.5 16.864L19.5016 16.8631C19.6527 16.7754 19.7783 16.6497 19.8658 16.4984C19.9535 16.3466 19.9998 16.1743 20 15.999V8.53755L13 12.5868V20.5783ZM11 12.5868V20.5783L4.5 16.864L4.49842 16.8631C4.34726 16.7754 4.22169 16.6497 4.13423 16.4984C4.04654 16.3467 4.00026 16.1746 4 15.9994V8.53753L11 12.5868ZM12.5039 3.13824L18.961 6.82804L12 10.8547L5.03899 6.82803L11.4961 3.13824L11.4961 3.13825L11.5 3.13603C11.652 3.04826 11.8245 3.00205 12 3.00205C12.1755 3.00205 12.348 3.04826 12.5 3.13603L12.5 3.13604L12.5039 3.13824Z" fill="#9F0F2E"/>
</svg>