<?xml version="1.0" standalone="no"?>
<!DOCTYPE svg PUBLIC "-//W3C//DTD SVG 20010904//EN"
 "http://www.w3.org/TR/2001/REC-SVG-20010904/DTD/svg10.dtd">
<svg version="1.0" xmlns="http://www.w3.org/2000/svg"
 width="700.000000pt" height="700.000000pt" viewBox="0 0 700.000000 700.000000"
 preserveAspectRatio="xMidYMid meet">
<metadata>
Created by potrace 1.11, written by Peter Selinger 2001-2013
</metadata>
<g transform="translate(0.000000,700.000000) scale(0.100000,-0.100000)"
fill="#000000" stroke="none">
<path d="M3358 6695 c-141 -23 -218 -57 -477 -207 -73 -43 -136 -78 -138 -78
-3 0 -17 -8 -31 -18 -15 -11 -52 -33 -82 -49 -30 -17 -100 -56 -155 -88 -55
-32 -125 -71 -155 -88 -30 -17 -72 -41 -92 -54 -21 -13 -40 -23 -43 -23 -3 0
-31 -16 -61 -35 -30 -19 -56 -35 -59 -35 -2 0 -26 -13 -53 -29 -26 -15 -68
-39 -93 -53 -24 -14 -120 -69 -214 -123 -93 -53 -195 -111 -225 -128 -30 -16
-59 -33 -65 -37 -5 -4 -30 -19 -55 -32 -25 -14 -106 -60 -180 -103 -74 -42
-151 -86 -170 -97 -97 -55 -225 -178 -294 -282 -38 -58 -98 -213 -117 -301 -9
-46 -13 -357 -14 -1307 -2 -1116 1 -1297 20 -1387 15 -78 80 -226 127 -295 46
-67 114 -140 177 -190 49 -40 655 -396 936 -550 11 -6 118 -68 237 -136 255
-146 223 -128 368 -209 63 -36 126 -72 140 -81 14 -9 50 -30 80 -47 78 -42
118 -65 260 -148 178 -103 236 -131 326 -155 43 -12 102 -30 129 -39 72 -25
146 -26 224 -2 36 11 100 30 141 42 66 19 150 58 270 126 111 63 463 265 508
292 29 17 54 31 56 31 2 0 53 29 114 64 61 36 131 76 154 89 24 13 219 124
433 247 215 123 406 232 425 242 181 103 274 158 325 191 133 89 269 261 324
411 57 155 54 84 56 1445 1 689 -2 1276 -6 1305 -13 91 -19 115 -48 194 -41
112 -66 161 -108 212 -53 64 -152 162 -193 191 -36 26 -188 119 -194 119 -2 0
-65 36 -141 80 -76 44 -139 80 -140 80 -1 0 -64 36 -140 80 -76 44 -141 80
-145 80 -4 0 -18 8 -31 18 -13 10 -53 35 -89 54 -53 29 -976 556 -1155 660
-108 63 -234 119 -310 138 -98 25 -253 32 -357 15z m210 -580 c34 -6 56 -17
227 -115 55 -31 120 -68 145 -82 25 -14 167 -95 315 -180 149 -85 290 -166
315 -180 25 -14 100 -57 168 -96 68 -40 125 -72 126 -72 3 0 180 -101 306
-175 14 -8 98 -56 187 -107 90 -51 163 -96 163 -99 0 -5 -179 -111 -504 -298
-22 -13 -84 -48 -136 -78 -52 -31 -110 -64 -129 -75 -18 -10 -293 -169 -610
-352 -317 -183 -587 -339 -601 -346 -14 -7 -27 -16 -30 -21 -3 -4 -106 51
-230 123 -243 141 -467 271 -515 298 -16 9 -88 51 -160 92 -293 170 -771 447
-942 545 -101 58 -183 109 -183 113 0 5 12 15 28 22 15 8 299 170 632 360 333
190 622 355 643 367 20 11 52 29 70 40 69 40 374 214 402 230 17 9 43 25 59
36 44 29 152 63 189 59 17 -2 47 -6 65 -9z m2265 -2702 c0 -599 -3 -1109 -7
-1134 -7 -46 -53 -131 -85 -157 -38 -30 -111 -74 -444 -264 -194 -110 -365
-208 -382 -217 -16 -8 -37 -21 -45 -27 -8 -6 -40 -25 -70 -41 -30 -16 -260
-147 -510 -290 -250 -143 -465 -265 -478 -272 l-22 -12 2 1166 3 1166 130 75
c72 40 137 78 145 83 34 21 249 145 300 174 30 16 62 36 71 43 8 8 19 14 22
14 4 0 28 13 54 28 27 16 122 72 213 124 91 53 181 105 200 117 19 11 42 24
50 28 8 4 85 48 171 99 87 50 163 94 170 97 8 4 124 71 259 150 135 79 247
142 249 140 2 -1 4 -492 4 -1090z m-4623 1073 c14 -7 120 -69 235 -136 116
-67 226 -132 245 -142 19 -11 121 -70 225 -131 105 -60 210 -121 235 -135 24
-14 84 -49 133 -78 49 -30 91 -54 93 -54 2 0 41 -22 86 -49 46 -27 99 -58 118
-69 19 -10 169 -97 333 -192 l297 -172 0 -1164 0 -1165 -22 12 c-13 7 -254
144 -536 306 -283 161 -518 293 -523 293 -5 0 -9 5 -9 10 0 6 -4 10 -9 10 -15
0 -813 460 -847 488 -39 33 -80 104 -90 157 -12 63 -11 2225 1 2225 6 0 21 -6
35 -14z"/>
</g>
</svg>
